<?xml version="1.0" encoding="utf-8"?>
<svg xmlns="http://www.w3.org/2000/svg" xmlns:xlink="http://www.w3.org/1999/xlink" width="600" height="400" viewBox="0 0 2400 1600">
<defs>
  <clipPath id="clip110">
    <rect x="0" y="0" width="2400" height="1600"/>
  </clipPath>
</defs>
<path clip-path="url(#clip110)" d="M0 1600 L2400 1600 L2400 0 L0 0  Z" fill="#ffffff" fill-rule="evenodd" fill-opacity="1"/>
<defs>
  <clipPath id="clip111">
    <rect x="480" y="0" width="1681" height="1600"/>
  </clipPath>
</defs>
<path clip-path="url(#clip110)" d="M249.542 1423.18 L2352.76 1423.18 L2352.76 47.2441 L249.542 47.2441  Z" fill="#ffffff" fill-rule="evenodd" fill-opacity="1"/>
<defs>
  <clipPath id="clip112">
    <rect x="249" y="47" width="2104" height="1377"/>
  </clipPath>
</defs>
<polyline clip-path="url(#clip112)" style="stroke:#000000; stroke-linecap:round; stroke-linejoin:round; stroke-width:2; stroke-opacity:0.1; fill:none" points="309.067,1423.18 309.067,47.2441 "/>
<polyline clip-path="url(#clip112)" style="stroke:#000000; stroke-linecap:round; stroke-linejoin:round; stroke-width:2; stroke-opacity:0.1; fill:none" points="805.108,1423.18 805.108,47.2441 "/>
<polyline clip-path="url(#clip112)" style="stroke:#000000; stroke-linecap:round; stroke-linejoin:round; stroke-width:2; stroke-opacity:0.1; fill:none" points="1301.15,1423.18 1301.15,47.2441 "/>
<polyline clip-path="url(#clip112)" style="stroke:#000000; stroke-linecap:round; stroke-linejoin:round; stroke-width:2; stroke-opacity:0.1; fill:none" points="1797.19,1423.18 1797.19,47.2441 "/>
<polyline clip-path="url(#clip112)" style="stroke:#000000; stroke-linecap:round; stroke-linejoin:round; stroke-width:2; stroke-opacity:0.1; fill:none" points="2293.23,1423.18 2293.23,47.2441 "/>
<polyline clip-path="url(#clip110)" style="stroke:#000000; stroke-linecap:round; stroke-linejoin:round; stroke-width:4; stroke-opacity:1; fill:none" points="249.542,1423.18 2352.76,1423.18 "/>
<polyline clip-path="url(#clip110)" style="stroke:#000000; stroke-linecap:round; stroke-linejoin:round; stroke-width:4; stroke-opacity:1; fill:none" points="309.067,1423.18 309.067,1404.28 "/>
<polyline clip-path="url(#clip110)" style="stroke:#000000; stroke-linecap:round; stroke-linejoin:round; stroke-width:4; stroke-opacity:1; fill:none" points="805.108,1423.18 805.108,1404.28 "/>
<polyline clip-path="url(#clip110)" style="stroke:#000000; stroke-linecap:round; stroke-linejoin:round; stroke-width:4; stroke-opacity:1; fill:none" points="1301.15,1423.18 1301.15,1404.28 "/>
<polyline clip-path="url(#clip110)" style="stroke:#000000; stroke-linecap:round; stroke-linejoin:round; stroke-width:4; stroke-opacity:1; fill:none" points="1797.19,1423.18 1797.19,1404.28 "/>
<polyline clip-path="url(#clip110)" style="stroke:#000000; stroke-linecap:round; stroke-linejoin:round; stroke-width:4; stroke-opacity:1; fill:none" points="2293.23,1423.18 2293.23,1404.28 "/>
<path clip-path="url(#clip110)" d="M263.13 1468.75 L292.805 1468.75 L292.805 1472.69 L263.13 1472.69 L263.13 1468.75 Z" fill="#000000" fill-rule="nonzero" fill-opacity="1" /><path clip-path="url(#clip110)" d="M303.708 1481.64 L311.347 1481.64 L311.347 1455.28 L303.037 1456.95 L303.037 1452.69 L311.301 1451.02 L315.977 1451.02 L315.977 1481.64 L323.615 1481.64 L323.615 1485.58 L303.708 1485.58 L303.708 1481.64 Z" fill="#000000" fill-rule="nonzero" fill-opacity="1" /><path clip-path="url(#clip110)" d="M343.06 1454.1 Q339.449 1454.1 337.62 1457.66 Q335.814 1461.2 335.814 1468.33 Q335.814 1475.44 337.62 1479.01 Q339.449 1482.55 343.06 1482.55 Q346.694 1482.55 348.5 1479.01 Q350.328 1475.44 350.328 1468.33 Q350.328 1461.2 348.5 1457.66 Q346.694 1454.1 343.06 1454.1 M343.06 1450.39 Q348.87 1450.39 351.926 1455 Q355.004 1459.58 355.004 1468.33 Q355.004 1477.06 351.926 1481.67 Q348.87 1486.25 343.06 1486.25 Q337.25 1486.25 334.171 1481.67 Q331.115 1477.06 331.115 1468.33 Q331.115 1459.58 334.171 1455 Q337.25 1450.39 343.06 1450.39 Z" fill="#000000" fill-rule="nonzero" fill-opacity="1" /><path clip-path="url(#clip110)" d="M774.749 1468.75 L804.425 1468.75 L804.425 1472.69 L774.749 1472.69 L774.749 1468.75 Z" fill="#000000" fill-rule="nonzero" fill-opacity="1" /><path clip-path="url(#clip110)" d="M814.564 1451.02 L832.92 1451.02 L832.92 1454.96 L818.846 1454.96 L818.846 1463.43 Q819.865 1463.08 820.883 1462.92 Q821.902 1462.73 822.92 1462.73 Q828.707 1462.73 832.087 1465.9 Q835.467 1469.08 835.467 1474.49 Q835.467 1480.07 831.994 1483.17 Q828.522 1486.25 822.203 1486.25 Q820.027 1486.25 817.758 1485.88 Q815.513 1485.51 813.106 1484.77 L813.106 1480.07 Q815.189 1481.2 817.411 1481.76 Q819.633 1482.32 822.11 1482.32 Q826.115 1482.32 828.453 1480.21 Q830.791 1478.1 830.791 1474.49 Q830.791 1470.88 828.453 1468.77 Q826.115 1466.67 822.11 1466.67 Q820.235 1466.67 818.36 1467.08 Q816.508 1467.5 814.564 1468.38 L814.564 1451.02 Z" fill="#000000" fill-rule="nonzero" fill-opacity="1" /><path clip-path="url(#clip110)" d="M1301.15 1454.1 Q1297.54 1454.1 1295.71 1457.66 Q1293.9 1461.2 1293.9 1468.33 Q1293.9 1475.44 1295.71 1479.01 Q1297.54 1482.55 1301.15 1482.55 Q1304.78 1482.55 1306.59 1479.01 Q1308.42 1475.44 1308.42 1468.33 Q1308.42 1461.2 1306.59 1457.66 Q1304.78 1454.1 1301.15 1454.1 M1301.15 1450.39 Q1306.96 1450.39 1310.01 1455 Q1313.09 1459.58 1313.09 1468.33 Q1313.09 1477.06 1310.01 1481.67 Q1306.96 1486.25 1301.15 1486.25 Q1295.34 1486.25 1292.26 1481.67 Q1289.2 1477.06 1289.2 1468.33 Q1289.2 1459.58 1292.26 1455 Q1295.34 1450.39 1301.15 1450.39 Z" fill="#000000" fill-rule="nonzero" fill-opacity="1" /><path clip-path="url(#clip110)" d="M1787.47 1451.02 L1805.82 1451.02 L1805.82 1454.96 L1791.75 1454.96 L1791.75 1463.43 Q1792.77 1463.08 1793.79 1462.92 Q1794.81 1462.73 1795.82 1462.73 Q1801.61 1462.73 1804.99 1465.9 Q1808.37 1469.08 1808.37 1474.49 Q1808.37 1480.07 1804.9 1483.17 Q1801.43 1486.25 1795.11 1486.25 Q1792.93 1486.25 1790.66 1485.88 Q1788.42 1485.51 1786.01 1484.77 L1786.01 1480.07 Q1788.09 1481.2 1790.32 1481.76 Q1792.54 1482.32 1795.01 1482.32 Q1799.02 1482.32 1801.36 1480.21 Q1803.69 1478.1 1803.69 1474.49 Q1803.69 1470.88 1801.36 1468.77 Q1799.02 1466.67 1795.01 1466.67 Q1793.14 1466.67 1791.26 1467.08 Q1789.41 1467.5 1787.47 1468.38 L1787.47 1451.02 Z" fill="#000000" fill-rule="nonzero" fill-opacity="1" /><path clip-path="url(#clip110)" d="M2267.92 1481.64 L2275.56 1481.64 L2275.56 1455.28 L2267.25 1456.95 L2267.25 1452.69 L2275.51 1451.02 L2280.19 1451.02 L2280.19 1481.64 L2287.83 1481.64 L2287.83 1485.58 L2267.92 1485.58 L2267.92 1481.64 Z" fill="#000000" fill-rule="nonzero" fill-opacity="1" /><path clip-path="url(#clip110)" d="M2307.27 1454.1 Q2303.66 1454.1 2301.83 1457.66 Q2300.02 1461.2 2300.02 1468.33 Q2300.02 1475.44 2301.83 1479.01 Q2303.66 1482.55 2307.27 1482.55 Q2310.9 1482.55 2312.71 1479.01 Q2314.54 1475.44 2314.54 1468.33 Q2314.54 1461.2 2312.71 1457.66 Q2310.9 1454.1 2307.27 1454.1 M2307.27 1450.39 Q2313.08 1450.39 2316.14 1455 Q2319.21 1459.58 2319.21 1468.33 Q2319.21 1477.06 2316.14 1481.67 Q2313.08 1486.25 2307.27 1486.25 Q2301.46 1486.25 2298.38 1481.67 Q2295.33 1477.06 2295.33 1468.33 Q2295.33 1459.58 2298.38 1455 Q2301.46 1450.39 2307.27 1450.39 Z" fill="#000000" fill-rule="nonzero" fill-opacity="1" /><path clip-path="url(#clip110)" d="M1298.24 1568.84 Q1290.88 1567.66 1287.48 1564.57 Q1283.31 1560.79 1283.31 1553.05 L1283.31 1532.4 L1289.23 1532.4 L1289.23 1552.83 Q1289.23 1558.65 1291.93 1561.07 Q1294.29 1563.17 1298.24 1563.62 L1298.24 1532.4 L1304.06 1532.4 L1304.06 1563.59 Q1308.23 1563.14 1310.36 1561.04 Q1313.07 1558.37 1313.07 1552.8 L1313.07 1532.4 L1318.99 1532.4 L1318.99 1553.02 Q1318.99 1561.04 1314.82 1564.54 Q1311.06 1567.69 1304.06 1568.81 L1304.06 1581.6 L1298.24 1581.6 L1298.24 1568.84 Z" fill="#000000" fill-rule="nonzero" fill-opacity="1" /><polyline clip-path="url(#clip112)" style="stroke:#000000; stroke-linecap:round; stroke-linejoin:round; stroke-width:2; stroke-opacity:0.1; fill:none" points="249.542,1384.3 2352.76,1384.3 "/>
<polyline clip-path="url(#clip112)" style="stroke:#000000; stroke-linecap:round; stroke-linejoin:round; stroke-width:2; stroke-opacity:0.1; fill:none" points="249.542,1059.75 2352.76,1059.75 "/>
<polyline clip-path="url(#clip112)" style="stroke:#000000; stroke-linecap:round; stroke-linejoin:round; stroke-width:2; stroke-opacity:0.1; fill:none" points="249.542,735.212 2352.76,735.212 "/>
<polyline clip-path="url(#clip112)" style="stroke:#000000; stroke-linecap:round; stroke-linejoin:round; stroke-width:2; stroke-opacity:0.1; fill:none" points="249.542,410.669 2352.76,410.669 "/>
<polyline clip-path="url(#clip112)" style="stroke:#000000; stroke-linecap:round; stroke-linejoin:round; stroke-width:2; stroke-opacity:0.1; fill:none" points="249.542,86.1267 2352.76,86.1267 "/>
<polyline clip-path="url(#clip110)" style="stroke:#000000; stroke-linecap:round; stroke-linejoin:round; stroke-width:4; stroke-opacity:1; fill:none" points="249.542,1423.18 249.542,47.2441 "/>
<polyline clip-path="url(#clip110)" style="stroke:#000000; stroke-linecap:round; stroke-linejoin:round; stroke-width:4; stroke-opacity:1; fill:none" points="249.542,1384.3 268.44,1384.3 "/>
<polyline clip-path="url(#clip110)" style="stroke:#000000; stroke-linecap:round; stroke-linejoin:round; stroke-width:4; stroke-opacity:1; fill:none" points="249.542,1059.75 268.44,1059.75 "/>
<polyline clip-path="url(#clip110)" style="stroke:#000000; stroke-linecap:round; stroke-linejoin:round; stroke-width:4; stroke-opacity:1; fill:none" points="249.542,735.212 268.44,735.212 "/>
<polyline clip-path="url(#clip110)" style="stroke:#000000; stroke-linecap:round; stroke-linejoin:round; stroke-width:4; stroke-opacity:1; fill:none" points="249.542,410.669 268.44,410.669 "/>
<polyline clip-path="url(#clip110)" style="stroke:#000000; stroke-linecap:round; stroke-linejoin:round; stroke-width:4; stroke-opacity:1; fill:none" points="249.542,86.1267 268.44,86.1267 "/>
<path clip-path="url(#clip110)" d="M126.205 1370.1 Q122.593 1370.1 120.765 1373.66 Q118.959 1377.2 118.959 1384.33 Q118.959 1391.44 120.765 1395 Q122.593 1398.54 126.205 1398.54 Q129.839 1398.54 131.644 1395 Q133.473 1391.44 133.473 1384.33 Q133.473 1377.2 131.644 1373.66 Q129.839 1370.1 126.205 1370.1 M126.205 1366.39 Q132.015 1366.39 135.07 1371 Q138.149 1375.58 138.149 1384.33 Q138.149 1393.06 135.07 1397.67 Q132.015 1402.25 126.205 1402.25 Q120.394 1402.25 117.316 1397.67 Q114.26 1393.06 114.26 1384.33 Q114.26 1375.58 117.316 1371 Q120.394 1366.39 126.205 1366.39 Z" fill="#000000" fill-rule="nonzero" fill-opacity="1" /><path clip-path="url(#clip110)" d="M146.366 1395.7 L151.251 1395.7 L151.251 1401.58 L146.366 1401.58 L146.366 1395.7 Z" fill="#000000" fill-rule="nonzero" fill-opacity="1" /><path clip-path="url(#clip110)" d="M171.436 1370.1 Q167.825 1370.1 165.996 1373.66 Q164.19 1377.2 164.19 1384.33 Q164.19 1391.44 165.996 1395 Q167.825 1398.54 171.436 1398.54 Q175.07 1398.54 176.876 1395 Q178.704 1391.44 178.704 1384.33 Q178.704 1377.2 176.876 1373.66 Q175.07 1370.1 171.436 1370.1 M171.436 1366.39 Q177.246 1366.39 180.301 1371 Q183.38 1375.58 183.38 1384.33 Q183.38 1393.06 180.301 1397.67 Q177.246 1402.25 171.436 1402.25 Q165.626 1402.25 162.547 1397.67 Q159.491 1393.06 159.491 1384.33 Q159.491 1375.58 162.547 1371 Q165.626 1366.39 171.436 1366.39 Z" fill="#000000" fill-rule="nonzero" fill-opacity="1" /><path clip-path="url(#clip110)" d="M201.598 1370.1 Q197.987 1370.1 196.158 1373.66 Q194.352 1377.2 194.352 1384.33 Q194.352 1391.44 196.158 1395 Q197.987 1398.54 201.598 1398.54 Q205.232 1398.54 207.037 1395 Q208.866 1391.44 208.866 1384.33 Q208.866 1377.2 207.037 1373.66 Q205.232 1370.1 201.598 1370.1 M201.598 1366.39 Q207.408 1366.39 210.463 1371 Q213.542 1375.58 213.542 1384.33 Q213.542 1393.06 210.463 1397.67 Q207.408 1402.25 201.598 1402.25 Q195.787 1402.25 192.709 1397.67 Q189.653 1393.06 189.653 1384.33 Q189.653 1375.58 192.709 1371 Q195.787 1366.39 201.598 1366.39 Z" fill="#000000" fill-rule="nonzero" fill-opacity="1" /><path clip-path="url(#clip110)" d="M127.2 1045.55 Q123.589 1045.55 121.76 1049.12 Q119.955 1052.66 119.955 1059.79 Q119.955 1066.9 121.76 1070.46 Q123.589 1074 127.2 1074 Q130.834 1074 132.64 1070.46 Q134.468 1066.9 134.468 1059.79 Q134.468 1052.66 132.64 1049.12 Q130.834 1045.55 127.2 1045.55 M127.2 1041.85 Q133.01 1041.85 136.066 1046.46 Q139.144 1051.04 139.144 1059.79 Q139.144 1068.52 136.066 1073.12 Q133.01 1077.71 127.2 1077.71 Q121.39 1077.71 118.311 1073.12 Q115.256 1068.52 115.256 1059.79 Q115.256 1051.04 118.311 1046.46 Q121.39 1041.85 127.2 1041.85 Z" fill="#000000" fill-rule="nonzero" fill-opacity="1" /><path clip-path="url(#clip110)" d="M147.362 1071.15 L152.246 1071.15 L152.246 1077.03 L147.362 1077.03 L147.362 1071.15 Z" fill="#000000" fill-rule="nonzero" fill-opacity="1" /><path clip-path="url(#clip110)" d="M166.459 1073.1 L182.778 1073.1 L182.778 1077.03 L160.834 1077.03 L160.834 1073.1 Q163.496 1070.34 168.079 1065.72 Q172.686 1061.06 173.866 1059.72 Q176.112 1057.2 176.991 1055.46 Q177.894 1053.7 177.894 1052.01 Q177.894 1049.26 175.95 1047.52 Q174.028 1045.78 170.927 1045.78 Q168.727 1045.78 166.274 1046.55 Q163.843 1047.31 161.065 1048.86 L161.065 1044.14 Q163.89 1043.01 166.343 1042.43 Q168.797 1041.85 170.834 1041.85 Q176.204 1041.85 179.399 1044.53 Q182.593 1047.22 182.593 1051.71 Q182.593 1053.84 181.783 1055.76 Q180.996 1057.66 178.889 1060.25 Q178.311 1060.92 175.209 1064.14 Q172.107 1067.34 166.459 1073.1 Z" fill="#000000" fill-rule="nonzero" fill-opacity="1" /><path clip-path="url(#clip110)" d="M192.639 1042.47 L210.996 1042.47 L210.996 1046.41 L196.922 1046.41 L196.922 1054.88 Q197.94 1054.53 198.959 1054.37 Q199.977 1054.19 200.996 1054.19 Q206.783 1054.19 210.162 1057.36 Q213.542 1060.53 213.542 1065.95 Q213.542 1071.53 210.07 1074.63 Q206.598 1077.71 200.278 1077.71 Q198.102 1077.71 195.834 1077.34 Q193.588 1076.97 191.181 1076.22 L191.181 1071.53 Q193.264 1072.66 195.487 1073.22 Q197.709 1073.77 200.186 1073.77 Q204.19 1073.77 206.528 1071.66 Q208.866 1069.56 208.866 1065.95 Q208.866 1062.34 206.528 1060.23 Q204.19 1058.12 200.186 1058.12 Q198.311 1058.12 196.436 1058.54 Q194.584 1058.96 192.639 1059.84 L192.639 1042.47 Z" fill="#000000" fill-rule="nonzero" fill-opacity="1" /><path clip-path="url(#clip110)" d="M126.205 721.011 Q122.593 721.011 120.765 724.575 Q118.959 728.117 118.959 735.247 Q118.959 742.353 120.765 745.918 Q122.593 749.46 126.205 749.46 Q129.839 749.46 131.644 745.918 Q133.473 742.353 133.473 735.247 Q133.473 728.117 131.644 724.575 Q129.839 721.011 126.205 721.011 M126.205 717.307 Q132.015 717.307 135.07 721.913 Q138.149 726.497 138.149 735.247 Q138.149 743.973 135.07 748.58 Q132.015 753.163 126.205 753.163 Q120.394 753.163 117.316 748.58 Q114.26 743.973 114.26 735.247 Q114.26 726.497 117.316 721.913 Q120.394 717.307 126.205 717.307 Z" fill="#000000" fill-rule="nonzero" fill-opacity="1" /><path clip-path="url(#clip110)" d="M146.366 746.612 L151.251 746.612 L151.251 752.492 L146.366 752.492 L146.366 746.612 Z" fill="#000000" fill-rule="nonzero" fill-opacity="1" /><path clip-path="url(#clip110)" d="M161.482 717.932 L179.839 717.932 L179.839 721.867 L165.765 721.867 L165.765 730.339 Q166.783 729.992 167.802 729.83 Q168.82 729.645 169.839 729.645 Q175.626 729.645 179.005 732.816 Q182.385 735.987 182.385 741.404 Q182.385 746.983 178.913 750.085 Q175.44 753.163 169.121 753.163 Q166.945 753.163 164.677 752.793 Q162.431 752.423 160.024 751.682 L160.024 746.983 Q162.107 748.117 164.329 748.673 Q166.552 749.228 169.028 749.228 Q173.033 749.228 175.371 747.122 Q177.709 745.015 177.709 741.404 Q177.709 737.793 175.371 735.687 Q173.033 733.58 169.028 733.58 Q167.153 733.58 165.278 733.997 Q163.427 734.413 161.482 735.293 L161.482 717.932 Z" fill="#000000" fill-rule="nonzero" fill-opacity="1" /><path clip-path="url(#clip110)" d="M201.598 721.011 Q197.987 721.011 196.158 724.575 Q194.352 728.117 194.352 735.247 Q194.352 742.353 196.158 745.918 Q197.987 749.46 201.598 749.46 Q205.232 749.46 207.037 745.918 Q208.866 742.353 208.866 735.247 Q208.866 728.117 207.037 724.575 Q205.232 721.011 201.598 721.011 M201.598 717.307 Q207.408 717.307 210.463 721.913 Q213.542 726.497 213.542 735.247 Q213.542 743.973 210.463 748.58 Q207.408 753.163 201.598 753.163 Q195.787 753.163 192.709 748.58 Q189.653 743.973 189.653 735.247 Q189.653 726.497 192.709 721.913 Q195.787 717.307 201.598 717.307 Z" fill="#000000" fill-rule="nonzero" fill-opacity="1" /><path clip-path="url(#clip110)" d="M127.2 396.468 Q123.589 396.468 121.76 400.033 Q119.955 403.574 119.955 410.704 Q119.955 417.811 121.76 421.375 Q123.589 424.917 127.2 424.917 Q130.834 424.917 132.64 421.375 Q134.468 417.811 134.468 410.704 Q134.468 403.574 132.64 400.033 Q130.834 396.468 127.2 396.468 M127.2 392.764 Q133.01 392.764 136.066 397.371 Q139.144 401.954 139.144 410.704 Q139.144 419.431 136.066 424.037 Q133.01 428.621 127.2 428.621 Q121.39 428.621 118.311 424.037 Q115.256 419.431 115.256 410.704 Q115.256 401.954 118.311 397.371 Q121.39 392.764 127.2 392.764 Z" fill="#000000" fill-rule="nonzero" fill-opacity="1" /><path clip-path="url(#clip110)" d="M147.362 422.07 L152.246 422.07 L152.246 427.949 L147.362 427.949 L147.362 422.07 Z" fill="#000000" fill-rule="nonzero" fill-opacity="1" /><path clip-path="url(#clip110)" d="M161.251 393.389 L183.473 393.389 L183.473 395.38 L170.927 427.949 L166.042 427.949 L177.848 397.325 L161.251 397.325 L161.251 393.389 Z" fill="#000000" fill-rule="nonzero" fill-opacity="1" /><path clip-path="url(#clip110)" d="M192.639 393.389 L210.996 393.389 L210.996 397.325 L196.922 397.325 L196.922 405.797 Q197.94 405.449 198.959 405.287 Q199.977 405.102 200.996 405.102 Q206.783 405.102 210.162 408.274 Q213.542 411.445 213.542 416.861 Q213.542 422.44 210.07 425.542 Q206.598 428.621 200.278 428.621 Q198.102 428.621 195.834 428.25 Q193.588 427.88 191.181 427.139 L191.181 422.44 Q193.264 423.574 195.487 424.13 Q197.709 424.685 200.186 424.685 Q204.19 424.685 206.528 422.579 Q208.866 420.473 208.866 416.861 Q208.866 413.25 206.528 411.144 Q204.19 409.037 200.186 409.037 Q198.311 409.037 196.436 409.454 Q194.584 409.871 192.639 410.75 L192.639 393.389 Z" fill="#000000" fill-rule="nonzero" fill-opacity="1" /><path clip-path="url(#clip110)" d="M117.015 99.4716 L124.654 99.4716 L124.654 73.106 L116.343 74.7726 L116.343 70.5134 L124.607 68.8467 L129.283 68.8467 L129.283 99.4716 L136.922 99.4716 L136.922 103.407 L117.015 103.407 L117.015 99.4716 Z" fill="#000000" fill-rule="nonzero" fill-opacity="1" /><path clip-path="url(#clip110)" d="M146.366 97.5271 L151.251 97.5271 L151.251 103.407 L146.366 103.407 L146.366 97.5271 Z" fill="#000000" fill-rule="nonzero" fill-opacity="1" /><path clip-path="url(#clip110)" d="M171.436 71.9254 Q167.825 71.9254 165.996 75.4902 Q164.19 79.0319 164.19 86.1615 Q164.19 93.2679 165.996 96.8327 Q167.825 100.374 171.436 100.374 Q175.07 100.374 176.876 96.8327 Q178.704 93.2679 178.704 86.1615 Q178.704 79.0319 176.876 75.4902 Q175.07 71.9254 171.436 71.9254 M171.436 68.2217 Q177.246 68.2217 180.301 72.8282 Q183.38 77.4115 183.38 86.1615 Q183.38 94.8883 180.301 99.4947 Q177.246 104.078 171.436 104.078 Q165.626 104.078 162.547 99.4947 Q159.491 94.8883 159.491 86.1615 Q159.491 77.4115 162.547 72.8282 Q165.626 68.2217 171.436 68.2217 Z" fill="#000000" fill-rule="nonzero" fill-opacity="1" /><path clip-path="url(#clip110)" d="M201.598 71.9254 Q197.987 71.9254 196.158 75.4902 Q194.352 79.0319 194.352 86.1615 Q194.352 93.2679 196.158 96.8327 Q197.987 100.374 201.598 100.374 Q205.232 100.374 207.037 96.8327 Q208.866 93.2679 208.866 86.1615 Q208.866 79.0319 207.037 75.4902 Q205.232 71.9254 201.598 71.9254 M201.598 68.2217 Q207.408 68.2217 210.463 72.8282 Q213.542 77.4115 213.542 86.1615 Q213.542 94.8883 210.463 99.4947 Q207.408 104.078 201.598 104.078 Q195.787 104.078 192.709 99.4947 Q189.653 94.8883 189.653 86.1615 Q189.653 77.4115 192.709 72.8282 Q195.787 68.2217 201.598 68.2217 Z" fill="#000000" fill-rule="nonzero" fill-opacity="1" /><path clip-path="url(#clip110)" d="M58.657 791.182 L77.5631 791.182 L77.5631 797.071 L28.3562 797.071 L28.3562 791.182 L33.7671 791.182 Q30.5842 789.336 29.0564 786.535 Q27.4968 783.703 27.4968 779.788 Q27.4968 773.295 32.6531 769.253 Q37.8093 765.179 46.212 765.179 Q54.6147 765.179 59.771 769.253 Q64.9272 773.295 64.9272 779.788 Q64.9272 783.703 63.3994 786.535 Q61.8398 789.336 58.657 791.182 M46.212 771.258 Q39.7508 771.258 36.0905 773.931 Q32.3984 776.573 32.3984 781.22 Q32.3984 785.867 36.0905 788.541 Q39.7508 791.182 46.212 791.182 Q52.6732 791.182 56.3653 788.541 Q60.0256 785.867 60.0256 781.22 Q60.0256 776.573 56.3653 773.931 Q52.6732 771.258 46.212 771.258 Z" fill="#000000" fill-rule="nonzero" fill-opacity="1" /><path clip-path="url(#clip110)" d="M14.5426 741.403 Q21.8632 745.668 29.0246 747.736 Q36.186 749.805 43.5384 749.805 Q50.8908 749.805 58.1159 747.736 Q65.3091 745.636 72.5979 741.403 L72.5979 746.495 Q65.1182 751.269 57.8931 753.657 Q50.668 756.012 43.5384 756.012 Q36.4406 756.012 29.2474 753.657 Q22.0542 751.301 14.5426 746.495 L14.5426 741.403 Z" fill="#000000" fill-rule="nonzero" fill-opacity="1" /><path clip-path="url(#clip110)" d="M64.7999 717.69 Q63.6222 725.043 60.5348 728.448 Q56.7473 732.618 49.0129 732.618 L28.3562 732.618 L28.3562 726.698 L48.7901 726.698 Q54.6147 726.698 57.0337 723.992 Q59.1344 721.637 59.58 717.69 L28.3562 717.69 L28.3562 711.866 L59.5482 711.866 Q59.1026 707.696 57.0019 705.564 Q54.3283 702.858 48.7583 702.858 L28.3562 702.858 L28.3562 696.938 L48.9811 696.938 Q57.0019 696.938 60.503 701.108 Q63.654 704.863 64.768 711.866 L77.5631 711.866 L77.5631 717.69 L64.7999 717.69 Z" fill="#000000" fill-rule="nonzero" fill-opacity="1" /><path clip-path="url(#clip110)" d="M14.5426 687.963 L14.5426 682.87 Q22.0542 678.096 29.2474 675.74 Q36.4406 673.353 43.5384 673.353 Q50.668 673.353 57.8931 675.74 Q65.1182 678.096 72.5979 682.87 L72.5979 687.963 Q65.3091 683.729 58.1159 681.66 Q50.8908 679.56 43.5384 679.56 Q36.186 679.56 29.0246 681.66 Q21.8632 683.729 14.5426 687.963 Z" fill="#000000" fill-rule="nonzero" fill-opacity="1" /><polyline clip-path="url(#clip112)" style="stroke:#009af9; stroke-linecap:round; stroke-linejoin:round; stroke-width:4; stroke-opacity:1; fill:none" points="309.067,1384.24 329.109,1384.23 349.151,1384.21 369.193,1384.19 389.235,1384.16 409.277,1384.14 429.319,1384.1 449.361,1384.05 469.403,1384 489.446,1383.93 509.488,1383.85 529.53,1383.75 549.572,1383.63 569.614,1383.48 589.656,1383.3 609.698,1383.08 629.74,1382.81 649.782,1382.47 669.824,1382.06 689.866,1381.57 709.908,1380.96 729.95,1380.21 749.992,1379.3 770.034,1378.18 790.076,1376.82 810.118,1375.16 830.161,1373.13 850.203,1370.66 870.245,1367.65 890.287,1363.98 910.329,1359.52 930.371,1354.1 950.413,1347.53 970.455,1339.58 990.497,1329.99 1010.54,1318.45 1030.58,1304.61 1050.62,1288.09 1070.67,1268.48 1090.71,1245.33 1110.75,1218.19 1130.79,1186.67 1150.83,1150.4 1170.88,1109.13 1190.92,1062.79 1210.96,1011.48 1231,955.581 1251.04,895.725 1271.09,832.812 1291.13,767.966 1311.17,702.458 1331.21,637.611 1351.25,574.699 1371.3,514.843 1391.34,458.943 1411.38,407.637 1431.42,361.291 1451.46,320.027 1471.51,283.755 1491.55,252.23 1511.59,225.099 1531.63,201.946 1551.67,182.33 1571.72,165.812 1591.76,151.976 1611.8,140.434 1631.84,130.842 1651.89,122.895 1671.93,116.325 1691.97,110.907 1712.01,106.445 1732.05,102.776 1752.1,99.7625 1772.14,97.2897 1792.18,95.2621 1812.22,93.6007 1832.26,92.24 1852.31,91.126 1872.35,90.2144 1892.39,89.4686 1912.43,88.8586 1932.47,88.3598 1952.52,87.9519 1972.56,87.6184 1992.6,87.3458 2012.64,87.123 2032.68,86.9409 2052.73,86.792 2072.77,86.6704 2092.81,86.571 2112.85,86.4897 2132.89,86.4233 2152.94,86.3691 2172.98,86.3248 2193.02,86.2886 2213.06,86.259 2233.1,86.2348 2253.15,86.215 2273.19,86.1989 2293.23,86.1857 "/>
<path clip-path="url(#clip110)" d="M319.649 196.789 L619.947 196.789 L619.947 93.1086 L319.649 93.1086  Z" fill="#ffffff" fill-rule="evenodd" fill-opacity="1"/>
<polyline clip-path="url(#clip110)" style="stroke:#000000; stroke-linecap:round; stroke-linejoin:round; stroke-width:4; stroke-opacity:1; fill:none" points="319.649,196.789 619.947,196.789 619.947,93.1086 319.649,93.1086 319.649,196.789 "/>
<polyline clip-path="url(#clip110)" style="stroke:#009af9; stroke-linecap:round; stroke-linejoin:round; stroke-width:4; stroke-opacity:1; fill:none" points="343.018,144.949 483.232,144.949 "/>
<path clip-path="url(#clip110)" d="M510.884 158.34 L510.884 172.09 L506.602 172.09 L506.602 136.303 L510.884 136.303 L510.884 140.238 Q512.226 137.923 514.264 136.812 Q516.324 135.678 519.171 135.678 Q523.893 135.678 526.833 139.428 Q529.796 143.178 529.796 149.289 Q529.796 155.4 526.833 159.15 Q523.893 162.9 519.171 162.9 Q516.324 162.9 514.264 161.789 Q512.226 160.655 510.884 158.34 M525.375 149.289 Q525.375 144.59 523.43 141.928 Q521.509 139.243 518.129 139.243 Q514.75 139.243 512.805 141.928 Q510.884 144.59 510.884 149.289 Q510.884 153.988 512.805 156.673 Q514.75 159.335 518.129 159.335 Q521.509 159.335 523.43 156.673 Q525.375 153.988 525.375 149.289 Z" fill="#000000" fill-rule="nonzero" fill-opacity="1" /><path clip-path="url(#clip110)" d="M547.087 126.257 Q543.986 131.581 542.481 136.789 Q540.976 141.997 540.976 147.344 Q540.976 152.692 542.481 157.946 Q544.009 163.178 547.087 168.479 L543.384 168.479 Q539.912 163.039 538.175 157.784 Q536.462 152.53 536.462 147.344 Q536.462 142.182 538.175 136.951 Q539.888 131.72 543.384 126.257 L547.087 126.257 Z" fill="#000000" fill-rule="nonzero" fill-opacity="1" /><path clip-path="url(#clip110)" d="M564.333 162.807 Q558.985 161.951 556.509 159.705 Q553.476 156.951 553.476 151.326 L553.476 136.303 L557.782 136.303 L557.782 151.164 Q557.782 155.4 559.749 157.159 Q561.462 158.687 564.333 159.011 L564.333 136.303 L568.569 136.303 L568.569 158.988 Q571.601 158.664 573.152 157.136 Q575.12 155.192 575.12 151.141 L575.12 136.303 L579.425 136.303 L579.425 151.303 Q579.425 157.136 576.393 159.682 Q573.661 161.974 568.569 162.784 L568.569 172.09 L564.333 172.09 L564.333 162.807 Z" fill="#000000" fill-rule="nonzero" fill-opacity="1" /><path clip-path="url(#clip110)" d="M585.953 126.257 L589.657 126.257 Q593.129 131.72 594.842 136.951 Q596.578 142.182 596.578 147.344 Q596.578 152.53 594.842 157.784 Q593.129 163.039 589.657 168.479 L585.953 168.479 Q589.032 163.178 590.536 157.946 Q592.064 152.692 592.064 147.344 Q592.064 141.997 590.536 136.789 Q589.032 131.581 585.953 126.257 Z" fill="#000000" fill-rule="nonzero" fill-opacity="1" /></svg>
